<svg xmlns="http://www.w3.org/2000/svg" xml:space="preserve" width="14" height="16" viewBox="0 0 2.78 3.18"><g style="display:inline;stroke-width:9.51467;stroke-dasharray:none"><path d="M-4.386-58.236c-1.505-.006-3.022.033-4.343.198-.03 2.688.058 5.388-.044 8.07-2.596.513-5.524.074-8.246.22-.412 2.618-.059 5.552-.177 8.29-5.423.383-11.172.118-16.713.133-.513-2.596-.074-5.523-.22-8.246-2.617-.412-5.551-.059-8.29-.177a12 12 0 0 0-.177 1.566v-1.566h-8.334l-.022.022h-.044l-.022.022-.022.023v.022l-.022.022v.022q-.002.021 0 .044v8.29h.176c-.414 5.23-.057 11.232-.176 16.757 2.635.558 5.792-.234 8.422.397.103 13.972.015 27.959.044 41.936 2.636.558 5.793-.234 8.423.397.103 19.617.015 39.248.044 58.87 2.029.412 4.375.058 6.526.176 1.279.404 1.774.026 1.94-.683v.683h67.624l.022-.022h.022l.022-.022.022-.022v-.022l.022-.022v-7.827c0-.087.006-.172.022-.243l.022-.066v-.022h.022v-.022l.022-.044.022-.022.022-.022h.022l.022-.022.044-.022q.133-.044.31-.044h7.826l.022-.022h.022l.023-.022.022-.022v-.023l.022-.022v-7.827q0-.176.044-.308v-.023l.044-.066.022-.022.022-.022h.022l.022-.022.022-.022h.022a1 1 0 0 1 .309-.044h7.827l.022-.022h.022l.022-.022.022-.022v-.022l.022-.022v-8.357c.03-11.212-.058-22.439.044-33.646 2.596-.513 5.524-.074 8.247-.22.411-5.44.058-11.196.176-16.757-2.635-.558-5.793.234-8.423-.397-.102-5.506-.014-11.025-.044-16.537-2.635-.558-5.792.235-8.422-.396-.103-8.329-.015-16.67-.044-25.004-2.602-.44-5.529 0-8.247-.22-.513-2.596-.074-5.523-.22-8.246-2.601-.441-5.528 0-8.246-.22-.514-2.596-.074-5.524-.22-8.247-5.44-.412-11.196-.059-16.758-.176-.411 5.44-.058 11.195-.176 16.757-2.601.382-5.528.117-8.246.132-.578-2.678.051-5.85-.309-8.555-.65.295-3.521.054-5.027.132-2.733.687-4.038-.618-3.351-3.351.063-1.508-.132-4.238.11-5.005a76 76 0 0 0-4.233-.132m-.242 8.466c1.39.022 2.794.088 4.145.066.514 2.596.074 5.524.22 8.247 2.602.44 5.529 0 8.247.22.659 2.614-.218 5.765.44 8.379 5.507.102 11.026.014 16.537.044.44-5.424 0-11.173.22-16.713 2.361-.513 5.054-.075 7.541-.22 1.907.61.404 4.065.882 5.82-.994 3.128 1.88 2.79 4.057 2.646 1.937.118 5.383-.88 4.41 2.293-.148 4.84.294 9.884-.22 14.596-12.562.103-25.137.015-37.704.044-1.993.14-5.412-.922-4.41 2.293-.333 1.943.68 4.806-.529 6.174-11.036-.03-22.085.059-33.117-.044-.513-2.596-.074-5.523-.22-8.246-2.635-.558-5.793.234-8.423-.397a622 622 0 0 1 0-16.492c2.58-.485 5.5-.133 8.202-.177.66 2.614-.218 5.765.441 8.379 8.329.102 16.67.015 25.004.044.44-5.424-.001-11.173.22-16.713 1.29-.242 2.667-.265 4.057-.243m47.867 33.867c2.456-.028 4.898-.015 7.254.243.133 5.49-.044 11.002.089 16.492 2.58.542 5.5.016 8.202.264.51 3.42.08 7.167.22 10.716-.333 1.942.68 4.806-.529 6.174-8.215-.03-16.44.058-24.65-.044-.66-2.614.218-5.765-.441-8.379a617 617 0 0 0-16.493 0c-.659 2.614.219 5.765-.44 8.379-11.135.073-22.292.073-33.426 0-.543-2.58-.016-5.5-.265-8.202-2.58-.485-5.5-.133-8.202-.177-.542 2.58-.016 5.5-.265 8.202-2.58.484-5.5.133-8.202.177-.51-3.42-.08-7.167-.22-10.716.147-4.84-.294-9.884.22-14.596 11.135-.132 22.291.043 33.426-.088.66-2.614-.218-5.765.441-8.379 11.974-.102 23.96-.015 35.94-.044 2.419.074 4.886.006 7.341-.022m-11.266 33.69c2.028-.086 1.757 2.35 1.631 4.256.118 1.937-.88 5.383 2.293 4.41 4.84.146 9.884-.294 14.596.22.103 8.328.015 16.67.045 25.003a14 14 0 0 0 1.587.176h-1.587v7.938q0 .175-.045.309v.022l-.022.022v.022l-.022.022-.022.022-.022.022c-.009.005-.056.04-.066.044h-.022a1 1 0 0 1-.309.044H42.6a1 1 0 0 0-.309.044h-.022l-.022.022-.022.022h-.022l-.022.022-.044.066-.022.022v.023a1 1 0 0 0-.044.308v7.409q-.001.175-.044.308v.022l-.022.022v.022l-.022.022-.022.022-.022.023-.022.022-.067.022-.066.022a1 1 0 0 1-.242.022h-66.675c-.087 0-.172-.006-.243-.022l-.066-.022h-.044l-.022-.022-.022-.022-.022-.023-.022.023-.044.044c.002-.054-.002-.097 0-.133-.1-16.367-.067-33.683 0-50.403 2.58-.484 5.5-.133 8.202-.176.659 2.614-.218 5.764.44 8.378 11.135.074 22.292.074 33.426 0 .543-2.58.016-5.5.265-8.202 4.595-.514 9.521-.073 14.243-.22a4 4 0 0 1 1.015-.199m-57.635 55.056v1.675c-.049-.607-.086-1.202 0-1.675" style="fill:#000;fill-opacity:1;stroke-width:9.51467;stroke-dasharray:none" transform="translate(1.197 1.365)scale(.02344)"/><path d="M8.246 52.079q.044-.132.177-.177.132-.044.308-.044h15.875q.177 0 .309.044.132.045.176.177t.044.309v7.408q0 .176-.044.309-.044.132-.176.176t-.309.044H8.731q-.176 0-.308-.044-.133-.044-.177-.176-.044-.133-.044-.31v-7.407q0-.177.044-.31" style="fill:#000;fill-opacity:1;stroke-width:9.51467;stroke-dasharray:none" transform="translate(1.197 1.365)scale(.02344)"/><path d="M-25.133 17.986a1 1 0 0 0-.309.044c-.01.003-.034.017-.044.022l-.022.022h-.022l-.022.022-.044.066-.022.022v.022a1 1 0 0 0-.044.309v49.742q0 .176.044.308c.003.011-.005.034 0 .044l.022.022.022.022.022.022.022.023.022.022.066.022q.132.044.309.044h66.675q.176 0 .308-.044c.01-.005.057-.017.067-.022l.022-.022.022-.023.022-.022.022-.022.022-.066a1 1 0 0 0 .044-.308v-7.409q0-.176.044-.308v-.023l.044-.066.022-.022.022-.022h.022c.01-.004.055-.04.066-.044a1 1 0 0 1 .31-.044h7.407q.176 0 .31-.044c.01-.005.056-.017.065-.022l.022-.022.022-.022.022-.022.022-.022c.005-.01.019-.055.023-.066a1 1 0 0 0 .044-.31V26.983a1 1 0 0 0-.044-.31l-.023-.021c-.005-.01-.015-.058-.022-.066l-.022-.022-.022-.022c-.009-.006-.056-.018-.066-.023l-.022-.022a1 1 0 0 0-.309-.044H34.133a1 1 0 0 1-.308-.044c-.011-.003-.034.005-.044 0l-.022-.022-.022-.022-.023-.022-.022-.022-.022-.022-.022-.066a1 1 0 0 1-.044-.309v-7.408a1 1 0 0 0-.044-.309l-.022-.022c-.005-.01-.016-.058-.022-.066l-.022-.022-.022-.022c-.01-.006-.056-.018-.066-.022l-.022-.022a1 1 0 0 0-.309-.044H17.2a1 1 0 0 0-.309.044c-.01.003-.034.017-.044.022l-.022.022h-.022l-.022.022-.044.066-.022.022v.022a1 1 0 0 0-.044.309v7.408q0 .176-.044.309l-.022.044v.022l-.022.022-.022.022-.022.022c-.01.006-.056.04-.067.044h-.022a1 1 0 0 1-.308.044h-32.809a1 1 0 0 1-.308-.044c-.011-.003-.034.005-.044 0l-.022-.022-.022-.022-.023-.022-.022-.022-.022-.022-.022-.066a1 1 0 0 1-.044-.309v-7.408a1 1 0 0 0-.044-.309l-.022-.022c-.005-.01-.016-.058-.022-.066l-.022-.022-.022-.022c-.01-.006-.056-.018-.066-.022l-.022-.022a1 1 0 0 0-.309-.044h-7.055zM-8.2 34.919h7.408q.176 0 .31.044c.01.005.056.039.065.044h.022l.022.022.044.066v.022l.022.023q.045.132.045.308v7.409q0 .176-.045.308c-.003.011-.017.034-.022.044v.022l-.022.022-.022.022-.022.023c-.009.005-.056.039-.066.044h-.022a1 1 0 0 1-.309.044H-8.2q-.176-.001-.309-.044h-.044l-.022-.022-.022-.022-.022-.023-.022-.022-.022-.022-.022-.022v-.044l-.022-.066a1 1 0 0 1-.022-.242v-7.409q-.002-.133.022-.242l.022-.066v-.023h.022v-.022l.022-.044.022-.022.022-.022h.022c.01-.004.055-.04.066-.044l.067-.022a1 1 0 0 1 .242-.022m42.333 0h7.409q.176 0 .308.044c.01.005.057.039.067.044h.022l.022.022.044.066v.022l.022.023q.044.132.044.308v7.409q0 .176-.044.308c-.004.011-.018.034-.022.044v.022l-.022.022-.022.022-.022.023c-.01.005-.056.039-.067.044h-.022a1 1 0 0 1-.308.044h-7.409a1 1 0 0 1-.308-.044c-.011-.004-.034.004-.044 0l-.022-.022-.022-.022-.023-.023-.022-.022-.022-.022-.022-.066a1 1 0 0 1-.044-.308v-7.409q0-.176.044-.308v-.023l.044-.066.022-.022.023-.022h.022c.01-.004.055-.04.066-.044a1 1 0 0 1 .308-.044m-25.4 16.933h15.875q.176 0 .31.044c.01.005.056.039.065.045h.022l.022.022c.007.008.039.057.044.066v.022l.022.022q.045.131.045.309v7.408q0 .175-.045.309c-.003.01-.017.034-.022.044v.022l-.022.022-.022.022-.022.022c-.009.005-.056.04-.066.044h-.022a1 1 0 0 1-.309.044H8.733a1 1 0 0 1-.308-.044c-.011-.004-.034.005-.044 0l-.022-.022-.022-.022-.023-.022-.022-.022-.022-.022-.022-.066a1 1 0 0 1-.044-.31v-7.407q0-.177.044-.31v-.021l.044-.066.022-.022.023-.022h.022c.01-.005.055-.04.066-.045a1 1 0 0 1 .308-.044" style="fill:#ff5f77;fill-opacity:.984314;stroke-width:9.51467;stroke-dasharray:none" transform="translate(1.197 1.365)scale(.02344)"/><path d="M33.646 35.145q.044-.132.177-.176.132-.044.308-.044h7.409q.176 0 .308.044.133.044.177.176.044.133.044.31v7.408q0 .176-.044.308t-.177.177-.308.044H34.13q-.176 0-.308-.044-.133-.045-.177-.177t-.044-.308v-7.409q0-.176.044-.309M-8.687 35.145q.044-.132.176-.176.133-.044.309-.044h7.408q.177 0 .309.044t.176.176.044.31v7.408q0 .176-.044.308t-.176.177-.309.044h-7.408q-.176 0-.309-.044-.132-.045-.176-.177t-.044-.308v-7.409q0-.176.044-.309" style="fill:#000;fill-opacity:1;stroke-width:9.51467;stroke-dasharray:none" transform="translate(1.197 1.365)scale(.02344)"/><path d="M.09-15.881c-.051.007-.088.03-.132.044h-.022l-.022.022-.022.022H-.13l-.022.022-.044.066-.022.022v.023a1 1 0 0 0-.044.308v7.409q.001.133-.022.242l-.023.066-.022.044v.022l-.022.022-.022.022-.022.023-.022.022-.044.022h-.022l-.066.022a1 1 0 0 1-.243.022H-33.6a1 1 0 0 0-.309.044h-.022l-.022.022-.022.022h-.022l-.022.022-.044.066-.022.022v.022a1 1 0 0 0-.044.309v24.342q0 .176.044.308v.044l.022.022.022.022.022.022.022.022.022.023.066.022q.133.044.31.044h7.407q.176 0 .31-.044c.004-.003.03-.018.043-.022h.022l.022-.023.022-.022.022-.022.022-.022a.977.977 0 0 0 .066-.375v-7.408c0-.087.006-.171.023-.242l.022-.066v-.023h.022v-.022l.022-.044.022-.022.022-.022h.022l.022-.022.022-.022h.022l.066-.022q.11-.023.243-.022h7.408q.133-.001.243.022l.088.044h.044l.022.022.022.022.044.044v.044l.022.023.022.066c.017.07.022.155.022.242v7.409q0 .176.044.308v.044l.022.022.022.022.023.022.022.022.022.023.066.022q.132.044.308.044h32.809q.176 0 .308-.044c.006-.003.03-.018.045-.022h.022l.022-.023.022-.022.022-.022.022-.022.022-.066a1 1 0 0 0 .044-.308v-7.409c0-.087.006-.171.022-.242l.022-.066v-.023h.022v-.022l.022-.044.022-.022.022-.022h.022l.022-.022.022-.022h.022l.067-.022c.07-.016.155-.022.242-.022h15.875q.134-.001.243.022l.088.044.066.022.022.022.044.044v.044l.022.023.022.066q.024.108.022.242v7.409q0 .176.044.308v.044l.022.022.022.022.023.022.022.022.022.023.066.022q.132.044.308.044h24.342q.176 0 .309-.044c.005-.003.03-.018.044-.022h.022l.022-.023.022-.022.022-.022.022-.022a.977.977 0 0 0 .066-.375V1.583a1 1 0 0 0-.044-.31l-.022-.021v-.044h-.022v-.022l-.022-.022-.022-.022h-.022v-.023c-.014-.004-.04.003-.044 0l-.022-.022a1 1 0 0 0-.309-.044h-7.408a1 1 0 0 1-.243-.022l-.066-.022h-.044l-.022-.022-.022-.022-.022-.022-.022-.022-.022-.022-.022-.022V.832a1 1 0 0 1-.044-.309v-15.875a1 1 0 0 0-.045-.308l-.022-.023v-.044h-.022v-.022l-.022-.022-.022-.022h-.022v-.022c-.014-.004-.039.002-.044 0l-.022-.022a1 1 0 0 0-.309-.044H.267c-.059 0-.125-.007-.177 0" style="fill:#84612c;fill-opacity:1;stroke-width:9.51467;stroke-dasharray:none" transform="translate(1.197 1.365)scale(.02344)"/><path d="M-8.2-49.748a1 1 0 0 0-.309.044c-.01.004-.034.018-.044.023l-.022.022h-.022l-.022.022-.044.066-.022.022v.022a1 1 0 0 0-.044.309v16.293l-.022.023v.022l-.022.022-.022.022h-.022l-.022.022H-33.6q-.175-.001-.309-.044h-.044l-.022-.022-.022-.022-.022-.023-.022-.022-.022-.022-.022-.022v-.044a1 1 0 0 1-.044-.308v-7.409a1 1 0 0 0-.044-.308l-.022-.023c-.006-.009-.016-.057-.022-.066l-.022-.022-.022-.022c-.01-.005-.056-.017-.067-.022l-.022-.022a1 1 0 0 0-.308-.044h-7.409a1 1 0 0 0-.308.044c-.011.004-.034.018-.044.022l-.022.022h-.022l-.023.022-.044.066-.022.022v.023a1 1 0 0 0-.044.308v15.875q0 .176.044.309c.004.01-.004.034 0 .044l.022.022.022.022.022.022.023.022.022.022a.977.977 0 0 0 .375.066h7.805l.022.022h.044v.022h.022v.023h.022v.044l.022.022q.002.021 0 .044v7.761q0 .176.044.309c.004.01-.005.034 0 .044l.022.022.022.022.022.022.022.022.022.022c.01.005.055.018.066.022q.132.044.31.044H-.793q.176 0 .31-.044c.01-.005.056-.017.065-.022l.022-.022.022-.022.022-.022.022-.022a.977.977 0 0 0 .066-.375v-7.827l.023-.022v-.022l.022-.023.022-.022h.044l.022-.022h41.672q.176 0 .308-.044c.01-.004.057-.016.067-.022l.022-.022.022-.022.022-.022.022-.022.022-.066a1 1 0 0 0 .044-.309v-15.875a1 1 0 0 0-.044-.308l-.022-.023c-.006-.009-.016-.057-.022-.066l-.022-.022-.022-.022c-.01-.005-.056-.017-.067-.022l-.022-.022a1 1 0 0 0-.308-.044h-7.409q-.175 0-.308-.044h-.044l-.022-.022-.022-.022-.023-.022-.022-.022-.022-.022-.022-.022v-.044a1 1 0 0 1-.044-.31v-7.407a1 1 0 0 0-.044-.31l-.022-.021c-.005-.01-.016-.058-.022-.066l-.022-.022-.022-.022c-.01-.006-.056-.018-.066-.023l-.022-.022a1 1 0 0 0-.309-.044h-7.408a1 1 0 0 0-.309.044l-.044.022-.022.023h-.022l-.022.022-.044.066-.022.022v.022a1 1 0 0 0-.044.309v16.293l-.022.022v.023l-.023.022-.022.022h-.022l-.022.022H8.733q-.175-.001-.308-.044H8.38l-.022-.022-.022-.023-.023-.022-.022-.022-.022-.022-.022-.022v-.044l-.022-.066a1 1 0 0 1-.022-.242v-7.409a1 1 0 0 0-.044-.308l-.022-.023c-.005-.009-.016-.057-.022-.066l-.022-.022-.022-.022c-.01-.005-.056-.017-.066-.022l-.022-.022a1 1 0 0 0-.309-.044H-.174l-.022-.022h-.022v-.022H-.24v-.044h-.022v-7.849a1 1 0 0 0-.045-.31l-.022-.021c-.005-.01-.015-.058-.022-.066l-.022-.022-.022-.022c-.009-.006-.056-.018-.066-.023l-.022-.022a1 1 0 0 0-.309-.044h-7.055Zm41.606 8.533h.044v.022zm-67.734 8.467h.045v.022z" style="fill:#f8f63e;fill-opacity:1;stroke-width:9.51467;stroke-dasharray:none;paint-order:stroke markers fill" transform="translate(1.197 1.365)scale(.02344)"/></g></svg>
